<?xml version="1.0" standalone="no"?>
<!DOCTYPE svg PUBLIC "-//W3C//DTD SVG 20010904//EN"
 "http://www.w3.org/TR/2001/REC-SVG-20010904/DTD/svg10.dtd">
<svg version="1.0" xmlns="http://www.w3.org/2000/svg"
 width="505.000000pt" height="208.000000pt" viewBox="0 0 505.000000 208.000000"
 preserveAspectRatio="xMidYMid meet">

<g transform="translate(0.000000,208.000000) scale(0.100000,-0.100000)"
fill="#000000" stroke="none">
<path d="M740 2032 c-164 -46 -286 -116 -378 -217 -142 -155 -245 -403 -304
-732 -20 -114 -23 -160 -23 -413 0 -255 2 -298 23 -414 13 -71 28 -140 33
-153 l9 -23 202 2 203 3 11 65 c7 36 12 101 13 145 l1 79 48 -45 c26 -25 78
-71 115 -102 l68 -57 74 0 c73 0 75 1 132 46 32 26 81 69 109 96 l51 49 7 -92
c4 -51 12 -114 17 -141 l11 -48 186 1 c103 1 198 4 212 8 23 6 27 17 52 141
71 351 80 750 23 1080 -57 329 -173 567 -302 616 -43 17 -66 13 -144 -20 -13
-6 -23 3 -40 35 -15 27 -42 54 -73 74 -46 28 -56 30 -160 32 -83 2 -127 -2
-176 -15z m367 -647 c45 -56 111 -109 181 -144 l42 -21 0 -103 1 -102 33 72
c54 115 105 120 114 11 13 -161 -105 -373 -148 -266 -5 13 -9 18 -9 12 -1 -5
-8 -61 -16 -123 -11 -84 -22 -126 -42 -163 -33 -61 -167 -204 -273 -293 l-78
-65 -75 0 c-85 0 -75 -6 -226 129 -91 82 -177 183 -209 246 -11 23 -25 82 -32
140 -14 112 -24 141 -34 107 -9 -27 -37 -28 -59 -4 -21 22 -63 117 -72 160
l-7 32 67 0 c36 0 87 5 113 12 38 9 47 9 50 -2 3 -8 22 -32 44 -54 l38 -41
-24 44 c-14 25 -23 48 -20 53 3 4 23 8 44 8 38 0 39 -1 28 -24 -13 -31 -6 -50
26 -72 24 -15 28 -15 51 0 16 10 25 26 25 41 0 25 14 33 25 15 3 -5 15 -15 26
-21 20 -10 20 -9 4 20 -19 37 -50 59 -107 76 l-43 12 32 17 c40 20 57 20 74 0
7 -8 25 -22 41 -30 25 -13 29 -13 34 1 4 9 -4 29 -18 47 l-25 32 85 59 c116
78 190 144 237 210 33 46 42 53 50 40 6 -9 29 -39 52 -68z m-477 -390 c0 -8
-7 -15 -15 -15 -8 0 -15 7 -15 15 0 8 7 15 15 15 8 0 15 -7 15 -15z"/>
<path d="M1105 1226 c-94 -44 -192 -143 -167 -168 16 -16 79 27 128 87 57 71
112 90 179 65 37 -14 22 4 -19 24 -45 21 -62 20 -121 -8z"/>
<path d="M1250 1090 c-8 -6 -36 -10 -62 -10 -92 0 -150 -19 -195 -65 -50 -49
-58 -79 -11 -40 l31 27 11 -33 c13 -38 43 -52 77 -35 28 13 37 59 18 82 -11
13 -7 15 31 12 24 -2 45 -8 47 -14 2 -6 -8 -27 -22 -48 -21 -31 -22 -35 -6
-26 23 12 50 48 80 108 24 47 24 56 1 42z m-140 -95 c0 -8 -7 -15 -15 -15 -8
0 -15 7 -15 15 0 8 7 15 15 15 8 0 15 -7 15 -15z"/>
<path d="M665 541 l-39 -6 27 -18 c15 -9 27 -25 27 -35 0 -45 80 -101 145
-102 77 0 148 42 161 97 4 15 17 35 28 43 20 14 19 15 -24 22 -68 10 -138 9
-145 -2 -4 -7 -12 -7 -25 0 -20 11 -89 11 -155 1z m225 -60 c0 -14 -56 -24
-90 -16 -50 11 -34 25 30 25 33 0 60 -4 60 -9z m20 -71 c0 -5 -4 -10 -10 -10
-5 0 -10 5 -10 10 0 6 5 10 10 10 6 0 10 -4 10 -10z"/>
<path d="M4683 513 c-10 -3 -13 -51 -13 -188 0 -195 0 -197 53 -210 22 -6 27
-4 27 12 0 10 -9 24 -20 31 -19 11 -20 23 -20 187 0 96 -3 175 -7 174 -5 0
-14 -3 -20 -6z"/>
<path d="M5008 512 c-15 -3 -18 -15 -18 -72 l0 -70 -26 10 c-86 33 -164 -29
-164 -132 0 -92 67 -145 168 -135 30 3 56 8 58 10 3 2 3 91 2 198 -3 179 -4
194 -20 191z m-37 -172 c17 -9 19 -22 19 -100 l0 -90 -45 0 c-66 0 -95 31 -95
101 0 40 5 58 22 76 23 25 66 30 99 13z"/>
<path d="M1748 473 c-16 -4 -18 -21 -18 -178 0 -196 -5 -185 88 -185 108 0
172 39 172 107 0 33 -35 83 -59 83 -6 0 1 11 14 25 26 25 33 72 15 104 -20 38
-140 63 -212 44z m150 -49 c14 -10 22 -26 22 -44 0 -40 -32 -60 -97 -60 l-53
0 0 53 c0 30 3 57 7 60 13 13 99 7 121 -9z m20 -160 c26 -18 30 -65 6 -88 -20
-21 -51 -28 -105 -24 l-44 3 -3 63 -3 62 63 0 c41 0 71 -5 86 -16z"/>
<path d="M2953 473 c-20 -8 -18 -301 2 -330 28 -41 135 -43 135 -4 0 16 -6 18
-37 15 -60 -7 -68 3 -71 106 l-4 90 56 0 c49 0 56 2 56 20 0 18 -7 20 -55 20
l-55 0 0 45 c0 44 -3 48 -27 38z"/>
<path d="M3591 454 c-35 -29 -40 -67 -16 -114 14 -27 13 -30 -20 -63 -53 -53
-43 -121 20 -152 44 -20 81 -19 134 5 l44 20 22 -20 c21 -20 55 -27 55 -12 0
5 -13 21 -29 36 l-29 27 21 38 c20 36 19 71 -3 71 -5 0 -16 -16 -24 -35 -8
-19 -19 -35 -23 -35 -5 0 -27 19 -48 41 -30 32 -36 43 -25 47 29 10 70 61 70
85 0 39 -10 56 -41 72 -41 22 -73 18 -108 -11z m99 -29 c17 -21 4 -62 -26 -82
-26 -16 -27 -16 -45 6 -22 26 -24 44 -9 72 13 23 62 26 80 4z m-16 -194 l48
-49 -23 -16 c-54 -38 -131 -9 -131 49 0 27 27 65 46 65 7 0 33 -22 60 -49z"/>
<path d="M4038 473 c-16 -4 -18 -21 -18 -178 0 -196 -5 -185 88 -185 108 0
172 39 172 107 0 33 -35 83 -59 83 -6 0 1 11 14 25 26 25 33 72 15 104 -20 38
-140 63 -212 44z m150 -49 c14 -10 22 -26 22 -44 0 -40 -32 -60 -97 -60 l-53
0 0 53 c0 30 3 57 7 60 13 13 99 7 121 -9z m20 -160 c26 -18 30 -65 6 -88 -20
-21 -51 -28 -105 -24 l-44 3 -3 63 -3 62 63 0 c41 0 71 -5 86 -16z"/>
<path d="M2120 377 c-13 -7 -35 -28 -48 -47 -20 -30 -23 -44 -20 -94 4 -51 9
-63 36 -87 35 -32 85 -44 137 -35 24 5 35 12 35 25 0 15 -7 17 -54 13 -48 -4
-57 -1 -80 21 -14 15 -26 35 -26 47 0 19 6 20 90 20 l90 0 0 35 c0 90 -81 142
-160 102z m86 -35 c11 -7 34 -45 34 -56 0 -3 -31 -6 -70 -6 -56 0 -70 3 -70
15 0 38 72 70 106 47z"/>
<path d="M2388 384 c-10 -3 -18 -13 -18 -23 0 -15 7 -17 48 -14 53 5 79 -9 84
-45 3 -22 0 -24 -54 -25 -69 -2 -108 -32 -108 -82 0 -63 57 -93 156 -80 l54 6
0 104 c0 94 -2 106 -23 131 -18 21 -34 27 -73 30 -27 1 -57 0 -66 -2z m117
-189 l0 -40 -43 -3 c-49 -4 -72 10 -72 42 0 34 20 47 70 44 l45 -3 0 -40z"/>
<path d="M2632 281 c3 -99 5 -112 27 -135 29 -31 68 -40 137 -31 l54 6 0 135
0 134 -25 0 -25 0 0 -120 0 -120 -44 0 c-65 0 -76 20 -76 142 l0 98 -26 0 -26
0 4 -109z"/>
<path d="M3126 363 c9 -38 60 -165 85 -215 21 -40 21 -41 1 -67 -12 -17 -30
-27 -53 -29 -61 -6 -57 -42 5 -42 20 0 40 11 65 38 31 30 45 60 78 162 58 177
58 180 31 180 -21 0 -26 -11 -52 -105 -15 -58 -32 -107 -36 -110 -9 -5 -33 54
-66 158 -15 48 -21 57 -41 57 -20 0 -23 -3 -17 -27z"/>
<path d="M4402 370 c-36 -22 -62 -72 -62 -120 0 -121 131 -183 214 -101 29 29
31 36 31 101 0 65 -2 72 -31 101 -42 41 -104 49 -152 19z m121 -52 c46 -61 13
-160 -55 -166 -49 -4 -78 32 -78 98 0 66 29 102 78 98 24 -2 41 -11 55 -30z"/>
</g>
</svg>
